<?xml version="1.0" encoding="iso-8859-1"?>
<!-- Uploaded to: SVG Repo, www.svgrepo.com, Generator: SVG Repo Mixer Tools -->
<svg fill="#000000" height="800px" width="800px" version="1.1" id="Layer_1" xmlns="http://www.w3.org/2000/svg" xmlns:xlink="http://www.w3.org/1999/xlink" 
	 viewBox="0 0 511.999 511.999" xml:space="preserve">
<g>
	<g>
		<path d="M484.131,116.893h-3.839c0.3-10.201-4.548-19.767-13.774-25.807c-14.681-9.607-19.44-18.728-20.607-21.462V59.091
			c5.677-0.729,11.166-3.242,15.516-7.592c3.393-3.393,3.393-8.895,0-12.287c-3.393-3.393-8.895-3.393-12.287,0
			c-3.677,3.677-9.66,3.677-13.338,0c-1.783-1.783-2.764-4.151-2.764-6.67c0-2.519,0.981-4.887,2.764-6.668
			c3.393-3.393,3.393-8.895,0-12.289c-3.393-3.392-8.895-3.393-12.289,0c-5.065,5.065-7.854,11.797-7.854,18.958
			c0,7.16,2.789,13.893,7.854,18.957c1.541,1.541,3.236,2.826,5.02,3.912v14.213c-1.167,2.735-5.929,11.855-20.623,21.466
			c-9.213,6.038-14.058,15.603-13.761,25.803h-3.835c-4.799,0-8.689,3.89-8.689,8.689s3.89,8.689,8.689,8.689h8.643v182.457h-31.361
			v-26.558c6.616-16.21,8.19-33.693,4.386-49.492c-4.458-18.518-15.951-34.287-33.236-45.601
			c-43.129-28.226-62.023-55.896-69.662-70.583c31.141-0.732,57.036-24.263,60.54-55.33c0.43-3.806-1.683-7.442-5.201-8.955
			c-3.517-1.514-7.612-0.546-10.078,2.383c-6.41,7.607-15.769,11.971-25.679,11.971c-18.494,0-33.539-15.05-33.539-33.551
			c0-9.917,4.362-19.276,11.966-25.675c2.931-2.466,3.901-6.562,2.388-10.08c-1.514-3.52-5.158-5.627-8.959-5.202
			c-31.569,3.573-55.374,30.246-55.374,62.043c0,26.461,16.558,49.115,39.852,58.187c-4.043,8.878-13.616,25.766-34.187,45.363
			c-3.474,3.31-3.608,8.811-0.298,12.285c3.31,3.476,8.809,3.608,12.285,0.298c16.796-16.003,27.062-30.536,33.196-41.32
			c9.97,17.538,30.901,45.005,73.233,72.709c29.111,19.055,31.499,47.99,23.589,70.549H159.188
			c-4.142-11.838-4.962-24.231-2.267-35.42c3.404-14.135,12.346-26.282,25.862-35.129c7.03-4.602,13.788-9.412,20.087-14.299
			c3.791-2.942,4.481-8.399,1.54-12.191c-2.943-3.791-8.4-4.48-12.191-1.54c-5.933,4.603-12.309,9.141-18.952,13.489
			c-17.286,11.315-28.781,27.084-33.239,45.601c-3.803,15.793-2.234,33.266,4.378,49.467v26.585h-31.361v-182.46h8.654
			c4.799,0,8.689-3.89,8.689-8.689s-3.89-8.689-8.689-8.689h-3.838c0.301-10.201-4.548-19.767-13.775-25.806
			c-14.68-9.607-19.44-18.728-20.607-21.463V58.625c4.736-1.088,9.239-3.444,12.921-7.126c3.393-3.393,3.393-8.895,0-12.289
			c-3.394-3.393-8.895-3.392-12.289,0c-3.677,3.677-9.662,3.678-13.338,0c-3.677-3.677-3.678-9.661,0-13.339
			c3.393-3.393,3.393-8.895,0-12.287c-3.393-3.393-8.895-3.393-12.287,0c-10.452,10.452-10.452,27.462,0,37.915
			c2.271,2.271,4.861,4.018,7.615,5.301v12.824c-1.167,2.735-5.928,11.855-20.62,21.464c-9.225,6.041-14.074,15.604-13.774,25.806
			h-3.838c-4.799,0-8.689,3.89-8.689,8.689s3.89,8.689,8.689,8.689h8.654V503.31c0,4.799,3.89,8.689,8.689,8.689h421.588
			c4.799,0,8.689-3.89,8.689-8.689V172.897c0-4.799-3.89-8.689-8.689-8.689c-4.799,0-8.689,3.89-8.689,8.689v321.723h-41.776
			v-360.35h41.776v9.662c0,4.799,3.89,8.689,8.689,8.689c4.799,0,8.689-3.89,8.689-8.689v-9.662h8.643
			c4.799,0,8.689-3.89,8.689-8.689C492.82,120.783,488.93,116.893,484.131,116.893z M222.524,62.095
			c0-14.346,6.711-27.247,17.31-35.532c-1.37,4.636-2.086,9.496-2.086,14.447c0,28.083,22.842,50.929,50.917,50.929
			c4.952,0,9.814-0.717,14.455-2.09c-8.281,10.592-21.181,17.301-35.527,17.301C242.74,107.15,222.524,86.938,222.524,62.095z
			 M95.665,494.62H53.9V134.271h41.765V494.62z M100.455,116.893H49.107c-0.251-3.5,0.747-7.899,5.888-11.264
			c9.259-6.057,15.547-12.147,19.791-17.392c4.241,5.243,10.525,11.334,19.778,17.39
			C99.707,108.993,100.707,113.393,100.455,116.893z M144.404,494.62h-31.361V334.105h31.361V494.62z M350.217,494.62h-38.011
			v-33.251c0-4.799-3.89-8.689-8.689-8.689s-8.689,3.89-8.689,8.689v33.251h-75.223v-77.668c0-19.484,15.851-35.335,35.335-35.335
			h4.553c19.484,0,35.335,15.851,35.335,35.335v15.454c0,4.799,3.89,8.689,8.689,8.689s8.689-3.89,8.689-8.689v-15.454
			c0-29.066-23.647-52.713-52.713-52.713h-4.553c-29.066,0-52.713,23.647-52.713,52.713v77.668h-40.444V297.542h188.435V494.62z
			 M398.956,494.62h-31.361V334.105h31.361V494.62z M462.89,116.893h-51.344c-0.249-3.502,0.75-7.901,5.882-11.264
			c9.259-6.057,15.547-12.147,19.791-17.392c4.241,5.243,10.525,11.334,19.78,17.388
			C462.143,108.993,463.142,113.393,462.89,116.893z"/>
	</g>
</g>
<g>
	<g>
		<path d="M437.222,190.008c-4.799,0-8.689,3.89-8.689,8.689v28.025c0,4.799,3.89,8.689,8.689,8.689s8.689-3.89,8.689-8.689v-28.025
			C445.911,193.898,442.021,190.008,437.222,190.008z"/>
	</g>
</g>
<g>
	<g>
		<path d="M437.222,294.797c-4.799,0-8.689,3.89-8.689,8.689v28.025c0,4.799,3.89,8.689,8.689,8.689s8.689-3.89,8.689-8.689v-28.025
			C445.911,298.687,442.021,294.797,437.222,294.797z"/>
	</g>
</g>
<g>
	<g>
		<path d="M74.788,190.008c-4.799,0-8.689,3.89-8.689,8.689v28.025c0,4.799,3.89,8.689,8.689,8.689c4.799,0,8.689-3.89,8.689-8.689
			v-28.025C83.477,193.898,79.587,190.008,74.788,190.008z"/>
	</g>
</g>
<g>
	<g>
		<path d="M74.788,294.797c-4.799,0-8.689,3.89-8.689,8.689v28.025c0,4.799,3.89,8.689,8.689,8.689c4.799,0,8.689-3.89,8.689-8.689
			v-28.025C83.477,298.687,79.587,294.797,74.788,294.797z"/>
	</g>
</g>
</svg>